<svg width="23" height="23" viewBox="0 0 23 23" fill="none" xmlns="http://www.w3.org/2000/svg">
<path d="M23 3.63158V6.05263H19.3684V9.68421H16.9474V6.05263H13.3158V3.63158H16.9474V0H19.3684V3.63158H23ZM19.3684 20.5789H2.42105V3.63158H9.68421V1.21053H2.42105C1.77954 1.21244 1.16485 1.46813 0.711226 1.92175C0.257606 2.37537 0.00191593 2.99007 0 3.63158V20.5789C0.00191593 21.2205 0.257606 21.8352 0.711226 22.2888C1.16485 22.7424 1.77954 22.9981 2.42105 23H19.3684C20.0099 22.9981 20.6246 22.7424 21.0782 22.2888C21.5319 21.8352 21.7876 21.2205 21.7895 20.5789V13.3158H19.3684V20.5789Z" fill="#3E3D3D"/>
</svg>
