<svg width="35" height="22" viewBox="0 0 35 22" fill="none" xmlns="http://www.w3.org/2000/svg">
<path d="M11.7231 2.30062C11.8482 2.17547 11.9475 2.02691 12.0152 1.8634C12.083 1.69989 12.1178 1.52465 12.1178 1.34767C12.1178 1.17069 12.083 0.995444 12.0152 0.831938C11.9475 0.668431 11.8482 0.519865 11.7231 0.394723C11.598 0.26958 11.4494 0.170311 11.2859 0.102585C11.1224 0.0348579 10.9471 -1.31859e-09 10.7702 0C10.5932 1.31859e-09 10.4179 0.0348579 10.2544 0.102585C10.0909 0.170311 9.94235 0.26958 9.81721 0.394723L0.395429 9.8165C0.270084 9.94153 0.170636 10.0901 0.102782 10.2536C0.0349275 10.4171 0 10.5924 0 10.7694C0 10.9465 0.0349275 11.1218 0.102782 11.2853C0.170636 11.4488 0.270084 11.5974 0.395429 11.7224L9.81721 21.1442C10.0699 21.3969 10.4127 21.5389 10.7702 21.5389C11.1276 21.5389 11.4704 21.3969 11.7231 21.1442C11.9758 20.8914 12.1178 20.5487 12.1178 20.1912C12.1178 19.8338 11.9758 19.491 11.7231 19.2383L3.25157 10.7694L11.7231 2.30062ZM23.2769 2.30062C23.0242 2.04788 22.8822 1.70509 22.8822 1.34767C22.8822 0.990245 23.0242 0.64746 23.2769 0.394723C23.5296 0.141986 23.8724 9.22496e-09 24.2298 0C24.5873 -9.22496e-09 24.9301 0.141986 25.1828 0.394723L34.6046 9.8165C34.7299 9.94153 34.8294 10.0901 34.8972 10.2536C34.9651 10.4171 35 10.5924 35 10.7694C35 10.9465 34.9651 11.1218 34.8972 11.2853C34.8294 11.4488 34.7299 11.5974 34.6046 11.7224L25.1828 21.1442C24.9301 21.3969 24.5873 21.5389 24.2298 21.5389C23.8724 21.5389 23.5296 21.3969 23.2769 21.1442C23.0242 20.8914 22.8822 20.5487 22.8822 20.1912C22.8822 19.8338 23.0242 19.491 23.2769 19.2383L31.7484 10.7694L23.2769 2.30062Z" fill="#7751E8"/>
</svg>
