<svg width="21" height="12" viewBox="0 0 21 12" fill="none" xmlns="http://www.w3.org/2000/svg">
<path d="M7.38681 10.853C7.38681 10.6341 7.47375 10.4242 7.62851 10.2695C7.78327 10.1147 7.99316 10.0278 8.21202 10.0278H13.1633C13.3821 10.0278 13.592 10.1147 13.7468 10.2695C13.9015 10.4242 13.9885 10.6341 13.9885 10.853C13.9885 11.0719 13.9015 11.2818 13.7468 11.4365C13.592 11.5913 13.3821 11.6782 13.1633 11.6782H8.21202C7.99316 11.6782 7.78327 11.5913 7.62851 11.4365C7.47375 11.2818 7.38681 11.0719 7.38681 10.853ZM4.08598 5.90176C4.08598 5.6829 4.17293 5.473 4.32768 5.31825C4.48244 5.16349 4.69233 5.07655 4.91119 5.07655H16.4641C16.6829 5.07655 16.8928 5.16349 17.0476 5.31825C17.2024 5.473 17.2893 5.6829 17.2893 5.90176C17.2893 6.12061 17.2024 6.33051 17.0476 6.48526C16.8928 6.64002 16.6829 6.72696 16.4641 6.72696H4.91119C4.69233 6.72696 4.48244 6.64002 4.32768 6.48526C4.17293 6.33051 4.08598 6.12061 4.08598 5.90176ZM0.785156 0.950512C0.785156 0.731654 0.872098 0.521759 1.02685 0.367003C1.18161 0.212247 1.3915 0.125305 1.61036 0.125305H19.7649C19.9838 0.125305 20.1937 0.212247 20.3484 0.367003C20.5032 0.521759 20.5901 0.731654 20.5901 0.950512C20.5901 1.16937 20.5032 1.37927 20.3484 1.53402C20.1937 1.68878 19.9838 1.77572 19.7649 1.77572H1.61036C1.3915 1.77572 1.18161 1.68878 1.02685 1.53402C0.872098 1.37927 0.785156 1.16937 0.785156 0.950512Z" fill="#7751E8"/>
</svg>
