<svg width="21" height="24" viewBox="0 0 21 24" fill="none" xmlns="http://www.w3.org/2000/svg">
<path d="M19.8012 2.89363H15.4697V1.06197C15.4697 0.936039 15.3768 0.833008 15.2634 0.833008H13.8196C13.7061 0.833008 13.6133 0.936039 13.6133 1.06197V2.89363H7.01291V1.06197C7.01291 0.936039 6.92009 0.833008 6.80665 0.833008H5.36281C5.24937 0.833008 5.15655 0.936039 5.15655 1.06197V2.89363H0.825048C0.368693 2.89363 0 3.30289 0 3.80946V22.8129C0 23.3195 0.368693 23.7288 0.825048 23.7288H19.8012C20.2575 23.7288 20.6262 23.3195 20.6262 22.8129V3.80946C20.6262 3.30289 20.2575 2.89363 19.8012 2.89363ZM18.7698 21.6681H1.85636V10.7927H18.7698V21.6681ZM1.85636 8.84652V4.95424H5.15655V6.32799C5.15655 6.45392 5.24937 6.55695 5.36281 6.55695H6.80665C6.92009 6.55695 7.01291 6.45392 7.01291 6.32799V4.95424H13.6133V6.32799C13.6133 6.45392 13.7061 6.55695 13.8196 6.55695H15.2634C15.3768 6.55695 15.4697 6.45392 15.4697 6.32799V4.95424H18.7698V8.84652H1.85636Z" fill="#7751E8"/>
</svg>
