<svg width="33" height="33" viewBox="0 0 33 33" fill="none" xmlns="http://www.w3.org/2000/svg">
<path d="M16.0508 4.99536C18.2508 4.99536 20.0508 6.79536 20.0508 8.99536C20.0508 11.1954 18.2508 12.9954 16.0508 12.9954C13.8508 12.9954 12.0508 11.1954 12.0508 8.99536C12.0508 6.79536 13.8508 4.99536 16.0508 4.99536ZM16.0508 22.9954C21.4508 22.9954 27.6508 25.5754 28.0508 26.9954V28.9954H4.05078V27.0154C4.45078 25.5754 10.6508 22.9954 16.0508 22.9954ZM16.0508 0.995361C11.6308 0.995361 8.05078 4.57536 8.05078 8.99536C8.05078 13.4154 11.6308 16.9954 16.0508 16.9954C20.4708 16.9954 24.0508 13.4154 24.0508 8.99536C24.0508 4.57536 20.4708 0.995361 16.0508 0.995361ZM16.0508 18.9954C10.7108 18.9954 0.0507812 21.6754 0.0507812 26.9954V32.9954H32.0508V26.9954C32.0508 21.6754 21.3908 18.9954 16.0508 18.9954Z" fill="#8867EB"/>
</svg>
