<svg width="20" height="20" viewBox="0 0 20 20" fill="none" xmlns="http://www.w3.org/2000/svg">
<g clip-path="url(#clip0_624_8512)">
<path d="M10.0535 0.243927C10.3808 0.243927 10.6946 0.37391 10.9259 0.605282C11.1573 0.836654 11.2873 1.15046 11.2873 1.47767V8.88013H18.6897C19.017 8.88013 19.3308 9.01012 19.5621 9.24149C19.7935 9.47286 19.9235 9.78667 19.9235 10.1139C19.9235 10.4411 19.7935 10.7549 19.5621 10.9863C19.3308 11.2176 19.017 11.3476 18.6897 11.3476H11.2873V18.7501C11.2873 19.0773 11.1573 19.3911 10.9259 19.6225C10.6946 19.8538 10.3808 19.9838 10.0535 19.9838C9.72633 19.9838 9.41253 19.8538 9.18115 19.6225C8.94978 19.3911 8.8198 19.0773 8.8198 18.7501V11.3476H1.41734C1.09013 11.3476 0.776321 11.2176 0.544949 10.9863C0.313577 10.7549 0.183594 10.4411 0.183594 10.1139C0.183594 9.78667 0.313577 9.47286 0.544949 9.24149C0.776321 9.01012 1.09013 8.88013 1.41734 8.88013H8.8198V1.47767C8.8198 1.15046 8.94978 0.836654 9.18115 0.605282C9.41253 0.37391 9.72633 0.243927 10.0535 0.243927V0.243927Z" fill="black"/>
</g>
<defs>
<clipPath id="clip0_624_8512">
<rect width="19.7399" height="19.7399" fill="white" transform="translate(0.183594 0.243927)"/>
</clipPath>
</defs>
</svg>
