<svg width="13" height="14" viewBox="0 0 13 14" fill="none" xmlns="http://www.w3.org/2000/svg">
<path d="M6.26522 0.958008C6.46833 0.958008 6.66312 1.03869 6.80674 1.18231C6.95036 1.32593 7.03104 1.52072 7.03104 1.72383V6.31874H11.626C11.8291 6.31874 12.0239 6.39943 12.1675 6.54304C12.3111 6.68666 12.3918 6.88145 12.3918 7.08456C12.3918 7.28767 12.3111 7.48246 12.1675 7.62608C12.0239 7.76969 11.8291 7.85038 11.626 7.85038H7.03104V12.4453C7.03104 12.6484 6.95036 12.8432 6.80674 12.9868C6.66312 13.1304 6.46833 13.2111 6.26522 13.2111C6.06212 13.2111 5.86733 13.1304 5.72371 12.9868C5.58009 12.8432 5.49941 12.6484 5.49941 12.4453V7.85038H0.904491C0.701383 7.85038 0.506594 7.76969 0.362975 7.62608C0.219356 7.48246 0.138672 7.28767 0.138672 7.08456C0.138672 6.88145 0.219356 6.68666 0.362975 6.54304C0.506594 6.39943 0.701383 6.31874 0.904491 6.31874H5.49941V1.72383C5.49941 1.52072 5.58009 1.32593 5.72371 1.18231C5.86733 1.03869 6.06212 0.958008 6.26522 0.958008V0.958008Z" fill="#7751E8"/>
</svg>
