<svg width="23" height="19" viewBox="0 0 23 19" fill="none" xmlns="http://www.w3.org/2000/svg">
<path fill-rule="evenodd" clip-rule="evenodd" d="M1.50218 0.345564C1.29091 0.345564 1.08828 0.438728 0.93889 0.60456C0.789495 0.770392 0.705566 0.995308 0.705566 1.22983V2.99836C0.705566 3.23288 0.789495 3.4578 0.93889 3.62363C1.08828 3.78947 1.29091 3.88263 1.50218 3.88263H3.09541C3.30669 3.88263 3.50931 3.78947 3.65871 3.62363C3.8081 3.4578 3.89203 3.23288 3.89203 2.99836V1.22983C3.89203 0.995308 3.8081 0.770392 3.65871 0.60456C3.50931 0.438728 3.30669 0.345564 3.09541 0.345564H1.50218ZM3.09541 1.22983H1.50218V2.99836H3.09541V1.22983Z" fill="#7751E8"/>
<path d="M6.28125 2.11415C6.28125 1.87963 6.36518 1.65471 6.51457 1.48888C6.66397 1.32305 6.86659 1.22988 7.07787 1.22988H21.4169C21.6282 1.22988 21.8308 1.32305 21.9802 1.48888C22.1296 1.65471 22.2136 1.87963 22.2136 2.11415C22.2136 2.34867 22.1296 2.57359 21.9802 2.73942C21.8308 2.90525 21.6282 2.99842 21.4169 2.99842H7.07787C6.86659 2.99842 6.66397 2.90525 6.51457 2.73942C6.36518 2.57359 6.28125 2.34867 6.28125 2.11415ZM7.07787 8.30403C6.86659 8.30403 6.66397 8.39719 6.51457 8.56302C6.36518 8.72886 6.28125 8.95377 6.28125 9.18829C6.28125 9.42282 6.36518 9.64773 6.51457 9.81357C6.66397 9.9794 6.86659 10.0726 7.07787 10.0726H21.4169C21.6282 10.0726 21.8308 9.9794 21.9802 9.81357C22.1296 9.64773 22.2136 9.42282 22.2136 9.18829C22.2136 8.95377 22.1296 8.72886 21.9802 8.56302C21.8308 8.39719 21.6282 8.30403 21.4169 8.30403H7.07787ZM7.07787 15.3782C6.86659 15.3782 6.66397 15.4713 6.51457 15.6372C6.36518 15.803 6.28125 16.0279 6.28125 16.2624C6.28125 16.497 6.36518 16.7219 6.51457 16.8877C6.66397 17.0535 6.86659 17.1467 7.07787 17.1467H21.4169C21.6282 17.1467 21.8308 17.0535 21.9802 16.8877C22.1296 16.7219 22.2136 16.497 22.2136 16.2624C22.2136 16.0279 22.1296 15.803 21.9802 15.6372C21.8308 15.4713 21.6282 15.3782 21.4169 15.3782H7.07787Z" fill="#7751E8"/>
<path fill-rule="evenodd" clip-rule="evenodd" d="M0.705078 8.3043C0.705078 8.06978 0.789007 7.84486 0.938402 7.67903C1.0878 7.51319 1.29042 7.42003 1.50169 7.42003H3.09493C3.3062 7.42003 3.50882 7.51319 3.65822 7.67903C3.80761 7.84486 3.89154 8.06978 3.89154 8.3043V10.0728C3.89154 10.3074 3.80761 10.5323 3.65822 10.6981C3.50882 10.864 3.3062 10.9571 3.09493 10.9571H1.50169C1.29042 10.9571 1.0878 10.864 0.938402 10.6981C0.789007 10.5323 0.705078 10.3074 0.705078 10.0728V8.3043ZM1.50169 8.3043H3.09493V10.0728H1.50169V8.3043ZM1.50169 14.4942C1.29042 14.4942 1.0878 14.5874 0.938402 14.7532C0.789007 14.919 0.705078 15.144 0.705078 15.3785V17.147C0.705078 17.3815 0.789007 17.6065 0.938402 17.7723C1.0878 17.9381 1.29042 18.0313 1.50169 18.0313H3.09493C3.3062 18.0313 3.50882 17.9381 3.65822 17.7723C3.80761 17.6065 3.89154 17.3815 3.89154 17.147V15.3785C3.89154 15.144 3.80761 14.919 3.65822 14.7532C3.50882 14.5874 3.3062 14.4942 3.09493 14.4942H1.50169ZM3.09493 15.3785H1.50169V17.147H3.09493V15.3785Z" fill="#7751E8"/>
</svg>
